#!OML:ASF E:\Style4\Style4.ASF
:FULLY-SPECIFIED
:DEGREES
2157
root -0.177687 17.7711 -2.29726 1.42059 -0.772144 3.73233
lowerback 9.43605 2.66649 4.5677
upperback 4.67719 3.94407 3.15284
thorax -0.33425 2.00406 0.329514
lowerneck 1.61781 -6.60587 -6.44709
upperneck -0.743988 -8.89717 4.99091
head 0.0330059 -4.46306 2.68553
rclavicle -1.31198e-014 2.8625e-014
rhumerus -372.699 30.3789 -439.322
rradius 65.7576
rwrist -38.4973
rhand -23.689 21.0913
rfingers 7.12502
rthumb 2.77767 -8.87038
lclavicle -1.31198e-014 2.8625e-014
lhumerus -1.35289 -11.8315 47.745
lradius 122.775
lwrist 45.2115
lhand -12.2819 21.1129
lfingers 7.12502
lthumb 13.7853 50.6362
rfemur -17.2681 0.242796 14.2652
rtibia 34.4372
rfoot -18.0362 -11.0002
rtoes -11.0871
lfemur -13.9729 1.54452 -22.8628
ltibia 31.8989
lfoot -18.2972 8.41394
ltoes -10.498
2158
root -0.18371 17.779 -2.28085 1.38127 -0.939135 3.66476
lowerback 9.30559 2.57009 4.44828
upperback 4.63802 3.7992 3.06752
thorax -0.309927 1.93104 0.325835
lowerneck 1.53229 -6.54079 -6.52577
upperneck -0.639036 -8.80913 5.00564
head 0.0799562 -4.41859 2.69951
rclavicle -7.55382e-015 -2.06736e-014
rhumerus -374.789 31.9381 -440.356
rradius 66.6534
rwrist -38.8191
rhand -23.3495 20.6362
rfingers 7.12502
rthumb 3.10558 -9.32096
lclavicle -7.55382e-015 -2.06736e-014
lhumerus -0.34679 -11.4556 49.016
lradius 121.553
lwrist 44.4127
lhand -12.4345 20.9018
lfingers 7.12502
lthumb 13.6382 50.435
rfemur -17.0238 0.380361 14.3688
rtibia 34.1972
rfoot -18.1039 -10.9015
rtoes -10.1457
lfemur -13.7641 1.59516 -22.769
ltibia 31.7603
lfoot -18.2822 8.49424
ltoes -10.8031
2159
root -0.188537 17.7858 -2.26535 1.31286 -1.15657 3.62817
lowerback 9.19574 2.50179 4.25987
upperback 4.59009 3.68809 2.97978
thorax -0.309411 1.87339 0.353275
lowerneck 1.53468 -6.45227 -6.5331
upperneck -0.574605 -8.6928 4.96345
head 0.0910368 -4.36056 2.6872
rclavicle 2.06736e-014 -1.43125e-014
rhumerus -376.995 33.5484 -441.489
rradius 67.6067
rwrist -39.0861
rhand -23.1079 20.2788
rfingers 7.12502
rthumb 3.33892 -9.67476
lclavicle 2.06736e-014 -1.43125e-014
lhumerus 0.62365 -11.2096 50.4444
lradius 120.16
lwrist 43.714
lhand -12.5677 20.9203
lfingers 7.12502
lthumb 13.5099 50.4621
rfemur -16.7737 0.574399 14.4302
rtibia 33.9588
rfoot -18.1471 -10.7578
rtoes -9.11841
lfemur -13.5208 1.6959 -22.712
ltibia 31.6243
lfoot -18.2929 8.60568
ltoes -10.876
2160
root -0.191536 17.7913 -2.24852 1.21589 -1.26249 3.59718
lowerback 9.02239 2.39612 4.05669
upperback 4.59064 3.52098 2.90739
thorax -0.226382 1.78925 0.414144
lowerneck 1.39226 -6.3346 -6.50327
upperneck -0.41157 -8.53048 4.86936
head 0.151262 -4.27835 2.64374
rclavicle 9.54166e-015 -1.11319e-014
rhumerus -379.155 35.1995 -442.624
rradius 68.6316
rwrist -39.1965
rhand -22.8947 19.8004
rfingers 7.12502
rthumb 3.54481 -10.1498
lclavicle 9.54166e-015 -1.11319e-014
lhumerus 1.56872 -11.0075 51.9346
lradius 118.662
lwrist 43.1249
lhand -12.5285 21.1738
lfingers 7.12502
lthumb 13.5477 50.7131
rfemur -16.5083 0.67203 14.4871
rtibia 33.7628
rfoot -18.1464 -10.7977
rtoes -9.12761
lfemur -13.2598 1.72772 -22.6667
ltibia 31.4945
lfoot -18.2206 8.7111
ltoes -11.532
2161
root -0.192679 17.7959 -2.23332 1.12175 -1.08982 3.47159
lowerback 8.86516 2.19657 4.01712
upperback 4.58772 3.24449 2.8604
thorax -0.148723 1.65262 0.418197
lowerneck 1.18614 -6.22179 -6.52266
upperneck -0.294212 -8.37067 4.80229
head 0.211794 -4.19668 2.61682
rclavicle -2.22639e-014 -4.77083e-015
rhumerus -381.319 36.8249 -443.768
rradius 69.8017
rwrist -39.288
rhand -22.5569 19.3334
rfingers 7.12502
rthumb 3.87097 -10.6112
lclavicle -2.22639e-014 -4.77083e-015
lhumerus 2.42157 -10.949 53.3714
lradius 117.239
lwrist 42.7707
lhand -12.7244 21.6519
lfingers 7.12502
lthumb 13.3589 51.2036
rfemur -16.2094 0.582615 14.649
rtibia 33.595
rfoot -18.169 -10.9157
rtoes -9.10632
lfemur -13.0483 1.50382 -22.5118
ltibia 31.378
lfoot -18.1922 8.79105
ltoes -11.7314
2162
root -0.19542 17.7971 -2.22112 1.00108 -1.01894 3.34481
lowerback 8.79207 2.03679 3.98592
upperback 4.56351 3.02672 2.77047
thorax -0.135278 1.54459 0.363414
lowerneck 1.01172 -6.11869 -6.57759
upperneck -0.160732 -8.22621 4.83016
head 0.279072 -4.12344 2.62865
rclavicle 1.74931e-014 -7.95139e-015
rhumerus -383.551 38.3751 -445.036
rradius 71.109
rwrist -39.4211
rhand -22.2912 19.1903
rfingers 7.12502
rthumb 4.12759 -10.7494
lclavicle 1.74931e-014 -7.95139e-015
lhumerus 3.26664 -11.1509 54.7076
lradius 115.872
lwrist 42.6098
lhand -13.0781 22.2845
lfingers 7.12502
lthumb 13.0179 51.8584
rfemur -15.9445 0.555152 14.8133
rtibia 33.4568
rfoot -18.1615 -10.9551
rtoes -9.11325
lfemur -12.8124 1.34783 -22.3595
ltibia 31.2744
lfoot -18.2993 8.9016
ltoes -11.9655
2163
root -0.197123 17.7967 -2.20784 0.892521 -1.0709 3.28205
lowerback 8.73232 1.92951 3.88716
upperback 4.49832 2.87558 2.64426
thorax -0.172314 1.46798 0.301358
lowerneck 0.920741 -6.00912 -6.60909
upperneck -0.0236505 -8.07777 4.86123
head 0.331946 -4.04909 2.64088
rclavicle 1.59028e-014 9.54166e-015
rhumerus -385.815 39.8714 -446.398
rradius 72.4126
rwrist -39.3738
rhand -21.997 19.1694
rfingers 7.12502
rthumb 4.4117 -10.7647
lclavicle 1.59028e-014 9.54166e-015
lhumerus 3.92885 -11.4668 56.1198
lradius 114.407
lwrist 42.6268
lhand -13.0545 22.952
lfingers 7.12502
lthumb 13.0407 52.5243
rfemur -15.7347 0.573605 14.902
rtibia 33.3585
rfoot -18.1182 -11.0191
rtoes -9.6282
lfemur -12.5769 1.29916 -22.2847
ltibia 31.1822
lfoot -18.395 8.9298
ltoes -11.7324
2164
root -0.199169 17.794 -2.19175 0.755802 -1.10972 3.18818
lowerback 8.63771 1.83045 3.78344
upperback 4.47272 2.73174 2.56143
thorax -0.151395 1.39569 0.288502
lowerneck 0.79863 -5.89052 -6.71302
upperneck 0.0635247 -7.91519 4.9197
head 0.377875 -3.96715 2.6756
rclavicle 1.23246e-014 -2.06736e-014
rhumerus -387.909 41.3358 -447.613
rradius 73.7416
rwrist -39.1864
rhand -21.3442 19.1357
rfingers 7.12502
rthumb 5.04202 -10.7843
lclavicle 1.23246e-014 -2.06736e-014
lhumerus 4.51152 -11.8424 57.6705
lradius 112.788
lwrist 42.6849
lhand -13.3496 23.4252
lfingers 7.12502
lthumb 12.7562 53.0155
rfemur -15.496 0.573356 15.0305
rtibia 33.3021
rfoot -18.1109 -11.1074
rtoes -10.0737
lfemur -12.3252 1.24665 -22.174
ltibia 31.1237
lfoot -18.5053 8.95547
ltoes -11.4606
2165
root -0.201189 17.7892 -2.17836 0.544348 -1.14914 3.08801
lowerback 8.53803 1.68981 3.62349
upperback 4.53985 2.52504 2.51601
thorax -0.0370449 1.29269 0.352777
lowerneck 0.644882 -5.70235 -6.81521
upperneck 0.01964 -7.65475 4.94152
head 0.379578 -3.83513 2.70126
rclavicle 7.55382e-014 3.02153e-014
rhumerus -389.66 42.9452 -448.663
rradius 75.0144
rwrist -38.7771
rhand -20.718 19.0776
rfingers 7.12502
rthumb 5.64666 -10.8271
lclavicle 7.55382e-014 3.02153e-014
lhumerus 5.07347 -12.1973 59.1731
lradius 111.066
lwrist 42.7338
lhand -14.2891 23.7361
lfingers 7.12502
lthumb 11.8503 53.3807
rfemur -15.1998 0.553955 15.1511
rtibia 33.2745
rfoot -18.1695 -11.0357
rtoes -9.78576
lfemur -12.0379 1.18111 -22.0662
ltibia 31.1084
lfoot -18.5833 9.08515
ltoes -11.6502
2166
root -0.202208 17.7828 -2.16785 0.306078 -1.21331 2.95075
lowerback 8.54381 1.56024 3.49836
upperback 4.57339 2.34281 2.46497
thorax -0.0124369 1.20084 0.385177
lowerneck 0.464647 -5.54142 -6.82907
upperneck 0.0053815 -7.42843 4.8931
head 0.390395 -3.71991 2.68581
rclavicle 4.05521e-014 3.49861e-014
rhumerus -391.341 44.4275 -449.754
rradius 76.2781
rwrist -38.2561
rhand -20.0941 18.996
rfingers 7.12502
rthumb 6.24901 -10.8918
lclavicle 4.05521e-014 3.49861e-014
lhumerus 5.51068 -12.6801 60.5794
lradius 109.29
lwrist 42.8946
lhand -14.8613 23.8905
lfingers 7.12502
lthumb 11.2985 53.5661
rfemur -14.9195 0.488831 15.3109
rtibia 33.2813
rfoot -18.2022 -10.9294
rtoes -9.86677
lfemur -11.7328 1.10535 -21.9276
ltibia 31.1342
lfoot -18.7219 9.22934
ltoes -12.0261
